<svg width="18" height="24" viewBox="0 0 18 24" fill="none" xmlns="http://www.w3.org/2000/svg">
<g id="flower-plant-line-icon 1" clip-path="url(#clip0_6_516)">
<g id="Group">
<path id="Vector" fill-rule="evenodd" clip-rule="evenodd" d="M7.63672 5.97747C8.52148 5.97747 9.24023 6.68958 9.24023 7.56617C9.24023 8.4447 8.52148 9.15487 7.63672 9.15487C6.75 9.15487 6.0332 8.44276 6.0332 7.56617C6.0332 6.68764 6.75 5.97747 7.63672 5.97747ZM7.63672 0C8.21289 0 8.73828 0.234145 9.11719 0.609551C9.49609 0.984957 9.73242 1.50549 9.73242 2.07634V2.55431L10.0742 2.21567C10.4824 1.81124 11.0195 1.60999 11.5547 1.60999C12.0918 1.60999 12.6289 1.81124 13.0352 2.21567C13.4434 2.6201 13.6465 3.15225 13.6465 3.68246C13.6465 4.21267 13.4434 4.74676 13.0352 5.14925L12.6953 5.48983H13.1777C13.7539 5.48983 14.2793 5.72397 14.6582 6.09938C15.0371 6.47478 15.2734 6.99532 15.2734 7.56617C15.2734 8.13702 15.0371 8.65756 14.6582 9.03296C14.2793 9.40837 13.7539 9.64251 13.1777 9.64251H12.6953L13.0371 9.98115C13.4453 10.3856 13.6484 10.9177 13.6484 11.4479C13.6484 11.9801 13.4453 12.5122 13.0371 12.9147C12.6289 13.3192 12.0918 13.5204 11.5566 13.5204C11.1875 13.5204 10.8184 13.4237 10.4902 13.2321C10.6738 14.3119 10.584 15.4168 10.3887 16.485C10.8672 15.7787 11.4473 15.2233 12.1094 14.8072C13.543 13.9094 15.3379 13.6868 17.3281 14.0274C17.6621 14.0835 17.8887 14.3989 17.8301 14.7298C17.8281 14.7395 17.8262 14.7473 17.8242 14.755C17.4316 16.5353 16.5215 17.9227 15.1035 18.8109C13.7676 19.6469 12 20.0223 9.8125 19.8443C9.73242 19.8385 9.6582 19.8172 9.5918 19.7843C9.50195 20.1577 9.42969 20.5061 9.38867 20.8234C9.33398 21.2395 9.33008 21.6536 9.37695 22.0696C9.42383 22.4876 9.52148 22.4411 9.66992 22.8494C9.79492 23.1939 9.64258 23.5867 9.33008 23.726C9.01562 23.8654 8.66016 23.697 8.53516 23.3506C8.34375 22.8243 8.21875 22.7585 8.16016 22.2322C8.14453 22.087 8.13281 21.9419 8.12695 21.7968C5.90625 21.4581 4.21289 20.6744 3.04102 19.5346C1.74805 18.2749 1.10352 16.603 1.09375 14.6292C1.09375 14.6118 1.09375 14.5944 1.09375 14.577C1.10742 14.2422 1.39258 13.981 1.73047 13.9926C3.93164 14.0855 5.79492 14.7298 7.10938 16.0128C7.7832 16.6707 8.30859 17.4873 8.65625 18.4742L8.67383 18.4084C9.01758 17.1003 9.4043 15.6238 9.35742 14.2364C9.28711 14.337 9.20703 14.4318 9.11914 14.517C8.74023 14.8924 8.21484 15.1265 7.63867 15.1265C7.0625 15.1265 6.53711 14.8924 6.1582 14.517C5.7793 14.1416 5.54297 13.621 5.54297 13.0502V12.578L5.20117 12.9167C4.79297 13.3211 4.25586 13.5224 3.7207 13.5224C3.18555 13.5224 2.64648 13.3211 2.24023 12.9167C1.83203 12.5122 1.62891 11.9801 1.62891 11.4499C1.62891 10.9197 1.83203 10.3856 2.24023 9.98115L2.58203 9.64251H2.09961C1.52344 9.64251 0.998047 9.40837 0.619141 9.03296C0.236328 8.65562 0 8.13702 0 7.56617C0 6.99532 0.236328 6.47478 0.615234 6.09938C0.994141 5.72397 1.51953 5.48983 2.0957 5.48983H2.57812L2.23633 5.15119C1.82812 4.74676 1.625 4.21461 1.625 3.68246C1.625 3.15031 1.82812 2.61817 2.23633 2.21567C2.64453 1.81124 3.18164 1.60999 3.7168 1.60999C4.25391 1.60999 4.79102 1.81124 5.19727 2.21567L5.53906 2.55431V2.07634C5.53906 1.50549 5.77539 0.984957 6.1543 0.609551C6.53516 0.234145 7.06055 0 7.63672 0ZM2.34766 15.262C2.47266 16.6262 2.98828 17.7834 3.90039 18.6716C4.81055 19.5579 6.12695 20.1945 7.85547 20.5215C7.68359 18.9328 7.11719 17.7331 6.24609 16.8855C5.29102 15.9547 3.94922 15.4284 2.34766 15.262ZM14.4492 17.7853C15.4043 17.1874 16.0723 16.2876 16.4492 15.1401C15.0273 14.9969 13.7676 15.2117 12.7637 15.8406C11.8516 16.4114 11.1328 17.3403 10.6719 18.6716C12.2285 18.6968 13.4902 18.3852 14.4492 17.7853ZM8.33789 1.38165C8.1582 1.20362 7.91016 1.09139 7.63672 1.09139C7.36328 1.09139 7.11523 1.20169 6.93555 1.38165C6.75586 1.55968 6.64258 1.80543 6.64258 2.07634V3.8721C6.64258 4.01142 6.58789 4.15075 6.48047 4.25718C6.26562 4.47004 5.91602 4.47004 5.70117 4.25718L4.41992 2.98777C4.22656 2.79619 3.97266 2.70137 3.7168 2.70137C3.46094 2.70137 3.20703 2.79619 3.01367 2.98777C2.82031 3.17934 2.72461 3.4309 2.72461 3.6844C2.72461 3.93789 2.82031 4.18945 3.01367 4.38102L4.29297 5.6485C4.39453 5.74719 4.45703 5.88458 4.45703 6.03745C4.45703 6.33933 4.21094 6.58315 3.90625 6.58315H2.09375C1.82031 6.58315 1.57227 6.69345 1.39258 6.87341C1.21289 7.05144 1.09961 7.29719 1.09961 7.5681C1.09961 7.83902 1.21094 8.08477 1.39258 8.2628C1.57227 8.44083 1.82031 8.55306 2.09375 8.55306H3.90625C4.04688 8.55306 4.1875 8.60724 4.29492 8.71367C4.50977 8.92653 4.50977 9.27291 4.29492 9.48577L3.01367 10.7552C2.82031 10.9468 2.72461 11.1983 2.72461 11.4518C2.72461 11.7053 2.82031 11.9569 3.01367 12.1484C3.20703 12.34 3.46094 12.4348 3.7168 12.4348C3.97266 12.4348 4.22656 12.34 4.41992 12.1484L5.69727 10.8829C5.79688 10.7823 5.9375 10.7184 6.0918 10.7184C6.39648 10.7184 6.64258 10.9622 6.64258 11.2641V13.0599C6.64258 13.3308 6.75391 13.5765 6.93555 13.7546C7.11523 13.9326 7.36328 14.0448 7.63672 14.0448C7.91016 14.0448 8.1582 13.9345 8.33789 13.7546C8.51758 13.5765 8.63086 13.3308 8.63086 13.0599V11.2641C8.63086 11.1248 8.68555 10.9855 8.79297 10.879C9.00781 10.6662 9.35742 10.6662 9.57227 10.879L10.8535 12.1484C11.0469 12.34 11.3008 12.4348 11.5566 12.4348C11.8125 12.4348 12.0664 12.34 12.2598 12.1484C12.4531 11.9569 12.5488 11.7053 12.5488 11.4518C12.5488 11.1983 12.4531 10.9468 12.2598 10.7552L10.9805 9.48771C10.8789 9.38902 10.8164 9.25163 10.8164 9.09875C10.8164 8.79688 11.0625 8.55306 11.3672 8.55306H13.1797C13.4531 8.55306 13.7012 8.44276 13.8809 8.2628C14.0605 8.08477 14.1738 7.83902 14.1738 7.5681C14.1738 7.29719 14.0625 7.05144 13.8809 6.87341C13.7012 6.69538 13.4531 6.58315 13.1797 6.58315H11.3672C11.2266 6.58315 11.0859 6.52896 10.9785 6.42254C10.7637 6.20968 10.7637 5.8633 10.9785 5.65044L12.2598 4.38102C12.4531 4.18945 12.5488 3.93789 12.5488 3.6844C12.5488 3.4309 12.4531 3.17934 12.2598 2.98777C12.0664 2.79619 11.8125 2.70137 11.5566 2.70137C11.3008 2.70137 11.0469 2.79619 10.8535 2.98777L9.57422 4.25524C9.47461 4.35587 9.33594 4.41779 9.18164 4.41779C8.87695 4.41779 8.63086 4.17397 8.63086 3.8721V2.07634C8.62891 1.80543 8.51758 1.55968 8.33789 1.38165Z" fill="#009F34"/>
</g>
</g>
<defs>
<clipPath id="clip0_6_516">
<rect width="17.8379" height="23.7783" fill="white"/>
</clipPath>
</defs>
</svg>
