<svg width="24" height="24" viewBox="0 0 24 24" fill="none" xmlns="http://www.w3.org/2000/svg">
<g id="trowel-svgrepo-com 1" clip-path="url(#clip0_6_487)">
<g id="Group">
<g id="Group_2">
<g id="Group_3">
<path id="Vector" d="M12.88 0.11888C12.28 -0.0396266 11.68 -0.0396266 11.08 0.11888C8.04 1.07001 6 3.80451 6 6.97497V11.2551C6 11.8099 6.39998 12.2855 6.96 12.4044L8.88 12.8403C9.50728 12.9784 10.1649 13.0563 10.8 13.074V14.9804L10.04 16.4863C10 16.5259 10 16.5656 10 16.6448V21.7968C9.99998 22.9064 10.88 23.7783 12 23.7783C13.12 23.7783 14 22.9064 14 21.7967V16.6448C14 16.5655 14 16.5259 13.96 16.4863L13.2 14.9803V13.0747C13.8405 13.0591 14.4844 12.9812 15.16 12.8403L17.08 12.4043C17.6 12.2854 18 11.8099 18 11.255V6.97492C18 3.80451 15.96 1.07001 12.88 0.11888ZM12.4 11.2551V12.6818V14.6633H11.6V12.6818V11.2551L12 10.8588L12.4 11.2551ZM13.2 21.7967C13.2 22.4705 12.68 22.9856 12 22.9856C11.32 22.9856 10.8 22.4705 10.8 21.7967H11.6C11.84 21.7967 12 21.6382 12 21.4004C12 21.1627 11.84 21.0042 11.6 21.0042H10.8V20.2115H11.6C11.84 20.2115 12 20.053 12 19.8152C12 19.5775 11.84 19.419 11.6 19.419H10.8V16.7241L11.44 15.4559H12.56L13.2 16.7241V21.7967H13.2ZM17.2 11.2551C17.2 11.4532 17.08 11.6117 16.88 11.6513L14.96 12.0873C14.36 12.2062 13.8 12.2855 13.2 12.2855V11.0966C13.2 10.9777 13.16 10.8984 13.08 10.8192L12.2799 10.0265C12.2 9.94739 12.1201 9.90778 12.0004 9.90764C11.9002 9.90754 11.8001 9.94711 11.72 10.0265L10.92 10.8191C10.84 10.8984 10.8 10.9776 10.8 11.0965V12.2854C10.2 12.2854 9.63998 12.2061 9.03998 12.0873L7.11998 11.6513C6.91997 11.6117 6.79997 11.4531 6.79997 11.255V6.97492C6.79997 4.16114 8.63995 1.70408 11.36 0.871843C11.8 0.752952 12.24 0.752952 12.68 0.871843C15.36 1.70408 17.2 4.16119 17.2 6.97492V11.2551Z" fill="#009F34"/>
<path id="Vector_2" d="M11.4801 1.58523C9.24007 2.2987 7.7201 4.28056 7.6001 6.73802C7.6001 6.93622 7.76008 7.13438 8.00008 7.13438C8.24008 7.13438 8.40007 6.97584 8.40007 6.73802C8.48008 4.67692 9.80008 2.93287 11.6801 2.33832C11.9201 2.2987 12.0401 2.06088 11.96 1.86268C11.9201 1.6249 11.6801 1.50599 11.4801 1.58523Z" fill="#009F34"/>
</g>
</g>
</g>
</g>
<defs>
<clipPath id="clip0_6_487">
<rect width="24" height="23.7783" fill="white"/>
</clipPath>
</defs>
</svg>
