<svg width="24" height="21" viewBox="0 0 24 21" fill="none" xmlns="http://www.w3.org/2000/svg">
<g id="tree-plant-icon 1" clip-path="url(#clip0_6_519)">
<g id="Group">
<path id="Vector" fill-rule="evenodd" clip-rule="evenodd" d="M12.0371 6.83017V7.09385C12.498 6.41806 13.0351 5.88486 13.6562 5.46103C14.6523 4.77744 15.8456 4.38681 17.2597 4.13681C17.4863 4.09775 17.7031 4.24814 17.7421 4.47666C17.7812 4.70322 17.6308 4.92002 17.4023 4.95908C16.0996 5.1876 15.0117 5.54111 14.1249 6.14853C13.4101 6.63877 12.8164 7.30283 12.3359 8.21103C15.7285 8.55088 17.7363 8.21885 19.1953 7.1583C20.6406 6.10556 21.6171 4.2872 22.8925 1.67002C22.5175 1.6915 22.1269 1.71103 21.7304 1.72861C19.1601 1.84775 16.3437 1.97861 14.5859 3.52549C14.1367 3.92197 13.6972 4.39658 13.2695 4.95322C12.8535 5.49033 12.4433 6.11533 12.0371 6.83017ZM10.7753 4.69345C10.6328 4.50205 10.4726 4.3497 10.2968 4.22666C9.95112 3.98642 9.52534 3.8458 9.01948 3.73447C8.79487 3.68564 8.65034 3.46299 8.69916 3.23838C8.74799 3.01377 8.97065 2.86924 9.19526 2.91806C9.79877 3.05088 10.3183 3.2247 10.7675 3.53525C10.7343 3.43369 10.6972 3.33213 10.6581 3.23447C10.4453 2.71103 10.1328 2.23252 9.70112 1.85361C9.20307 1.41611 8.5644 1.33603 7.98041 1.26181L7.96674 1.25986L4.90229 1.07236L5.69526 2.70908C6.24994 3.70322 7.0019 4.25595 7.92182 4.52353C8.73237 4.75791 9.69135 4.7833 10.7753 4.69345ZM11.1015 5.6876C9.80854 5.8126 8.65034 5.79502 7.63862 5.5001C6.45502 5.15635 5.49604 4.44931 4.79487 3.18369C4.79096 3.17588 4.7851 3.16611 4.78119 3.1583L3.60541 0.730564C3.48237 0.476658 3.58979 0.17197 3.84369 0.0508762C3.92573 0.0118137 4.01166 -0.00381128 4.09565 0.00204809L8.03119 0.244236C8.05268 0.246189 8.07416 0.248142 8.09565 0.252048L8.10541 0.254001C8.83979 0.345798 9.64448 0.447361 10.373 1.08994C10.9296 1.58017 11.332 2.18955 11.6015 2.85361C11.8964 3.58017 12.0292 4.37119 12.0292 5.13095C12.0292 5.1876 12.0195 5.24228 12.0039 5.29306C12.2031 4.99424 12.4042 4.71299 12.6074 4.44931C13.0761 3.83799 13.5527 3.32431 14.0312 2.90244C16.0078 1.16416 18.9804 1.02549 21.6914 0.900486C22.3183 0.871189 22.9296 0.843845 23.5449 0.791111C23.6171 0.785251 23.6914 0.79697 23.7597 0.830173C23.9667 0.929783 24.0546 1.17978 23.9531 1.38681C22.4628 4.46494 21.4081 6.57431 19.6796 7.83213C17.9941 9.05869 15.7382 9.42588 11.9335 9.00986V12.3517C13.5234 10.1349 15.0781 10.0978 17.6171 10.0372C18.1601 10.0235 18.7539 10.0099 19.4296 9.96885C19.498 9.96494 19.5683 9.97666 19.6347 10.0099C19.8417 10.1095 19.9296 10.3595 19.8281 10.5665C18.791 12.711 18.1191 14.0411 16.9726 14.7931C15.8749 15.5138 14.4296 15.6446 11.9316 15.3751V20.8419H11.0956V15.4923C7.66791 15.8653 5.58784 15.5509 4.01557 14.4571C2.40815 13.3341 1.39643 11.4337 0.0409604 8.63486C-0.058649 8.42783 0.0272886 8.17783 0.23432 8.07822C0.302679 8.04502 0.374945 8.0333 0.44721 8.03721C1.00385 8.08017 1.57221 8.10361 2.15619 8.12705C4.66401 8.22666 7.49213 8.33799 9.27534 9.90635C10.1113 10.6407 10.6992 11.252 11.0996 11.9259L11.1015 5.6876ZM10.1855 14.7423C9.61518 13.9923 9.01362 13.4298 8.37299 12.9903C7.58588 12.4513 6.72846 12.0899 5.78901 11.7931C5.5683 11.7247 5.44721 11.4884 5.51752 11.2696C5.58784 11.0489 5.82221 10.9278 6.04096 10.9962C7.05073 11.3145 7.97846 11.7071 8.84369 12.3009C9.5976 12.8165 10.2968 13.4825 10.955 14.377C10.9062 13.6427 10.7675 13.0724 10.5019 12.5606C10.1581 11.8946 9.58979 11.2911 8.72455 10.5313C7.1601 9.15635 4.49213 9.05088 2.12299 8.95713C1.77338 8.94346 1.43159 8.92978 1.10346 8.91221C2.24799 11.2403 3.16596 12.8438 4.49799 13.7696C5.76948 14.6544 7.47065 14.9591 10.1855 14.7423ZM12.2753 13.3497C12.5878 13.0724 12.9394 12.838 13.3144 12.6388C14.1777 12.1798 15.1699 11.9063 16.0878 11.7462C16.3144 11.7071 16.5312 11.8575 16.5703 12.086C16.6093 12.3126 16.4589 12.5294 16.2304 12.5685C15.3886 12.7169 14.4824 12.9649 13.705 13.377C13.1386 13.6778 12.6425 14.0685 12.2968 14.5724C14.4218 14.7853 15.6484 14.67 16.5214 14.0978C17.3749 13.5372 17.9667 12.4845 18.7753 10.836C18.3789 10.8517 17.9999 10.8614 17.6406 10.8692C15.205 10.9259 13.7812 10.961 12.2753 13.3497Z" fill="#009F34"/>
</g>
</g>
<defs>
<clipPath id="clip0_6_519">
<rect width="24" height="20.8398" fill="white"/>
</clipPath>
</defs>
</svg>
