<svg width="24" height="24" viewBox="0 0 24 24" fill="none" xmlns="http://www.w3.org/2000/svg">
<g id="green2-svgrepo-com 1">
<path id="Vector" fill-rule="evenodd" clip-rule="evenodd" d="M21.5588 3.37361C21.415 3.12011 21.1353 2.96521 20.8343 2.97254C18.4489 3.03061 13.0722 4.33963 10.0342 9.12413C6.74972 7.13607 3.17572 7.41769 1.86372 7.78293C1.6001 7.85625 1.39397 8.05394 1.31743 8.30681C0.81722 9.95883 0.525383 13.976 3.50851 16.8364C4.91722 18.1872 6.3728 18.7329 7.69296 18.7542C8.73073 18.771 9.63683 18.4625 10.3148 18.0351C10.7534 18.4785 11.2172 18.8182 11.6366 19.0503C12.6124 19.5905 14.2342 20.0392 16.0215 19.6944C17.8448 19.3427 19.741 18.1845 21.2516 15.6757C24.2579 10.683 22.719 5.41875 21.5588 3.37361ZM9.35868 16.7966C9.16646 16.4706 8.99733 16.1152 8.86235 15.731C8.35811 14.2963 8.35243 12.5275 9.28654 10.4907C6.78454 8.92891 4.04857 8.94643 2.74892 9.16472C2.42531 10.7205 2.46364 13.6606 4.64211 15.7495C5.80073 16.8604 6.87383 17.2035 7.72001 17.2172C8.37428 17.2278 8.93978 17.0426 9.35868 16.7966ZM11.2651 10.1471C13.7083 6.08969 18.0905 4.75445 20.3736 4.53993C21.3212 6.54295 22.3065 10.8496 19.8633 14.9071C18.5524 17.0842 17.0208 17.9335 15.7054 18.1873C15.0324 18.3172 14.39 18.2961 13.8297 18.195L18.1686 10.5677C18.3806 10.1951 18.2374 9.72825 17.8486 9.52503C17.46 9.32166 16.9732 9.45909 16.7612 9.83171L14.4918 13.8212L14.2172 13.0312C14.0772 12.6285 13.6232 12.4108 13.2032 12.5452C12.7832 12.6794 12.5563 13.1147 12.6963 13.5173L13.4429 15.6649L12.315 17.6474C11.6427 17.2376 10.7961 16.4192 10.3815 15.24C9.95297 14.0209 9.95425 12.3243 11.2651 10.1471Z" fill="#009F34"/>
</g>
</svg>
