<svg width="16" height="16" viewBox="0 0 16 16" fill="none" xmlns="http://www.w3.org/2000/svg">
<g id="flower-variant-with-many-petals-svgrepo-com (1) 1" clip-path="url(#clip0_3_61)">
<g id="Group">
<g id="Group_2">
<path id="Vector" d="M7.76339 2.91116C7.85007 2.95052 7.93345 2.99447 8.01489 3.04263C8.19351 2.6285 8.44852 2.23965 8.78629 1.90209C9.19732 1.4913 9.68951 1.19283 10.2253 1.01487C9.653 0.392602 8.83438 0 7.92201 0C6.97464 0 6.1273 0.42261 5.55298 1.08758C6.13251 1.25924 6.66389 1.57284 7.10312 2.01232C7.37183 2.28096 7.59228 2.58424 7.76339 2.91116Z" fill="#009F34"/>
<path id="Vector_2" d="M13.6029 7.43381C13.5096 7.69529 13.378 7.93789 13.2134 8.15597C13.2744 8.23748 13.3313 8.3218 13.3835 8.4097C13.5988 8.54958 13.8017 8.71127 13.9879 8.89702C14.4271 9.33666 14.7406 9.86783 14.9129 10.4474C15.5777 9.87325 16.0002 9.02574 16.0002 8.07808C16.0002 7.11109 15.5611 6.24689 14.8723 5.67261C14.6942 6.20544 14.397 6.69488 13.9882 7.10379C13.8668 7.22438 13.7369 7.33224 13.6029 7.43381Z" fill="#009F34"/>
<path id="Vector_3" d="M10.3447 15.0246C9.76192 14.8532 9.22769 14.5393 8.78627 14.098C8.44081 13.7523 8.18052 13.3535 8.00141 12.9286C7.81907 13.3599 7.55432 13.7569 7.21342 14.098C6.8025 14.5088 6.31041 14.8071 5.77466 14.9852C6.34692 15.6076 7.16558 16.0001 8.07791 16.0001C8.97073 16 9.77422 15.6245 10.3447 15.0246Z" fill="#009F34"/>
<path id="Vector_4" d="M1.08747 10.447C1.25921 9.86748 1.57288 9.33604 2.01228 8.89698C2.3762 8.53286 2.80361 8.25726 3.26874 8.07485C2.76133 7.89452 2.29459 7.60575 1.90234 7.21367C1.49155 6.80292 1.19307 6.31073 1.01522 5.7749C0.392777 6.34738 0.000244278 7.16603 0.000244278 8.07805C-3.38923e-05 9.02543 0.422576 9.87266 1.08747 10.447Z" fill="#009F34"/>
<path id="Vector_5" d="M8.46655 3.37578C8.80154 3.68024 9.06045 4.06554 9.21163 4.50182C9.68261 4.07542 10.3013 3.8106 10.9818 3.79697C11.0005 3.79676 11.0187 3.79433 11.0373 3.79433C11.1125 3.79433 11.1861 3.79954 11.2595 3.80552C11.3509 3.81282 11.4409 3.82482 11.5297 3.84099C11.9882 3.92507 12.4072 4.1226 12.7552 4.40595C12.8586 4.49034 12.9543 4.58363 13.0446 4.68228C13.1298 4.77529 13.2098 4.87279 13.2819 4.97686C13.5846 5.41599 13.7633 5.9474 13.7633 6.52046C13.7633 6.52672 13.7625 6.53291 13.7622 6.5392C14.0678 6.1836 14.281 5.77684 14.401 5.34857C14.426 5.25743 14.4483 5.16567 14.4652 5.07307C14.4825 4.97923 14.4959 4.88447 14.5049 4.78958C14.5864 3.89534 14.2857 2.97261 13.6013 2.2881C12.9897 1.67658 12.1879 1.37094 11.3866 1.37094C11.3092 1.37094 11.2325 1.3763 11.1557 1.38186C11.0564 1.38916 10.9574 1.40116 10.859 1.41788C10.765 1.43398 10.6716 1.45467 10.5787 1.47932C10.0637 1.61629 9.57638 1.88406 9.17244 2.28807C8.85307 2.60769 8.6193 2.97946 8.46655 3.37578Z" fill="#009F34"/>
<path id="Vector_6" d="M11.0021 14.6027C11.1039 14.6152 11.2057 14.6229 11.3076 14.6252C11.3342 14.6258 11.3606 14.6293 11.387 14.6293C12.1885 14.6293 12.9901 14.3233 13.6017 13.712C14.2476 13.0661 14.5485 12.2088 14.5124 11.3628C14.5086 11.2656 14.4998 11.1689 14.4866 11.0726C14.4733 10.9768 14.456 10.8816 14.4341 10.787C14.3205 10.298 14.0884 9.83206 13.737 9.43271C13.7524 9.55034 13.7638 9.66947 13.7638 9.79099C13.7638 10.2914 13.6256 10.7593 13.3895 11.1628C13.3276 11.2688 13.2587 11.3704 13.1836 11.4667C13.1042 11.568 13.0187 11.6637 12.9262 11.7525C12.5951 12.0713 12.184 12.3058 11.7265 12.4258C11.6392 12.4487 11.5501 12.4673 11.4594 12.4813C11.3701 12.4953 11.2798 12.5047 11.1881 12.5098C11.138 12.5127 11.0883 12.5175 11.0378 12.5175C9.78756 12.5175 8.73426 11.6708 8.41392 10.522C8.34535 10.7315 8.29799 10.9464 8.27441 11.164C8.2846 11.2743 8.29072 11.385 8.29072 11.4974C8.29072 11.6096 8.2846 11.7205 8.27441 11.8308C8.34771 12.5178 8.64605 13.1855 9.17276 13.712C9.61213 14.151 10.15 14.4301 10.7149 14.5539C10.8096 14.5744 10.9059 14.591 11.0021 14.6027Z" fill="#009F34"/>
<path id="Vector_7" d="M2.39818 9.28299C1.96872 9.71217 1.69337 10.2359 1.56569 10.7871C1.54388 10.8817 1.52639 10.9768 1.51322 11.0727C1.50014 11.169 1.49148 11.2657 1.48731 11.3628C1.45094 12.2084 1.75234 13.0662 2.39818 13.7121C3.00956 14.3233 3.81128 14.6294 4.61276 14.6294C4.68975 14.6294 4.76708 14.6238 4.84371 14.6182C4.94298 14.611 5.04215 14.599 5.14066 14.582C5.23492 14.566 5.32822 14.5452 5.42109 14.5207C5.93612 14.3836 6.42337 14.116 6.82741 13.7118C7.35587 13.1835 7.65469 12.5129 7.72653 11.8232C7.7427 11.6672 7.74478 11.5106 7.73776 11.3542C7.73091 11.3638 7.72319 11.3729 7.71644 11.3825C7.22075 12.0686 6.41666 12.5173 5.50764 12.5173C5.32529 12.5173 5.14723 12.4984 4.97473 12.4643C4.88464 12.4461 4.79601 12.4243 4.70936 12.3974C4.62045 12.3702 4.5331 12.3387 4.44788 12.3027C4.12454 12.1658 3.83316 11.9679 3.5875 11.7238C3.50752 11.6444 3.43409 11.5591 3.36454 11.4706C3.29841 11.3863 3.23815 11.2984 3.1822 11.2067C2.92938 10.7934 2.78112 10.3099 2.78112 9.79079C2.78112 9.45706 2.84443 9.138 2.9548 8.84216C2.75768 8.96623 2.56985 9.11129 2.39818 9.28299Z" fill="#009F34"/>
<path id="Vector_8" d="M1.41821 5.1408C1.43417 5.235 1.455 5.32843 1.47952 5.42123C1.61662 5.93627 1.88446 6.42355 2.2884 6.82749C2.72182 7.26098 3.25111 7.53752 3.80801 7.66391C4.04845 7.47142 4.32217 7.31999 4.61891 7.2171C4.18076 6.73302 3.91114 6.09378 3.91114 5.39112C3.91114 5.27673 3.92049 5.16462 3.93433 5.05377C3.94584 4.96257 3.96138 4.873 3.98152 4.78492C4.00207 4.69559 4.02658 4.60828 4.05551 4.52261C4.12575 4.31457 4.22043 4.11863 4.33594 3.93633C4.40364 3.82979 4.47697 3.72773 4.55837 3.63187C4.63424 3.54233 4.71676 3.45944 4.8032 3.38023C5.28798 2.93749 5.93055 2.66506 6.63724 2.66506C6.74997 2.66506 6.86089 2.67413 6.97007 2.68745C6.89198 2.5879 6.80926 2.49033 6.71743 2.39864C6.2881 1.96932 5.76431 1.69382 5.21322 1.56614C5.11875 1.54427 5.02358 1.52678 4.92771 1.51374C4.83136 1.5006 4.73473 1.49187 4.63751 1.48777C4.5928 1.48589 4.54798 1.48148 4.50291 1.48148C3.70147 1.48148 2.89978 1.78725 2.2884 2.39864C1.61794 3.06903 1.31769 3.96766 1.38205 4.84414C1.38928 4.94348 1.40128 5.0423 1.41821 5.1408Z" fill="#009F34"/>
<path id="Vector_9" d="M8.07703 3.75821C8.07474 3.75633 8.07255 3.75418 8.07032 3.75223C7.9956 3.68675 7.91719 3.62556 7.83402 3.57065C7.79521 3.54537 7.75533 3.52159 7.71527 3.4984C7.60247 3.4339 7.48376 3.37997 7.35953 3.33619C7.13303 3.25622 6.89036 3.21039 6.63667 3.21039C5.94308 3.21039 5.32544 3.53706 4.92568 4.04358C4.85586 4.13193 4.79254 4.22592 4.73687 4.32463C4.67605 4.43277 4.62525 4.54654 4.58318 4.66504C4.57967 4.67482 4.57584 4.68462 4.57223 4.69453C4.54274 4.78156 4.51746 4.87033 4.49907 4.96199C4.48053 5.0548 4.46989 5.1501 4.4636 5.24645C4.4604 5.29454 4.4563 5.34225 4.4563 5.39083C4.4563 6.06998 4.76886 6.67736 5.25719 7.07751C5.33952 7.06993 5.42287 7.06496 5.5075 7.06496C5.7179 7.06496 5.92212 7.09107 6.11917 7.13679C6.17671 7.15018 6.23447 7.16406 6.29055 7.18099C6.30401 7.18509 6.31736 7.18857 6.33068 7.19267C6.34052 7.17122 6.35095 7.1499 6.36163 7.12887C6.36997 7.11193 6.37745 7.09444 6.38614 7.07779C6.44049 6.97706 6.50384 6.88216 6.57314 6.79207C6.62227 6.72788 6.67439 6.66596 6.73069 6.60772C6.80385 6.53181 6.88299 6.4623 6.96675 6.39794C7.02868 6.35034 7.09349 6.30604 7.16029 6.26539C7.19958 6.24164 7.23887 6.21852 7.27955 6.19721C7.37403 6.14814 7.47281 6.106 7.5749 6.07137C7.6845 6.0343 7.79764 6.00642 7.91427 5.98722C7.9489 5.98148 7.98353 5.97523 8.01875 5.97112C8.09657 5.96246 8.17523 5.95725 8.25523 5.95725C8.27516 5.95725 8.29439 5.95961 8.31403 5.96017C8.33215 5.9609 8.3504 5.96222 8.36876 5.96295C8.39272 5.8473 8.42659 5.73534 8.46494 5.62539C8.54338 5.40035 8.64791 5.1878 8.77958 4.99395C8.70935 4.61393 8.54116 4.26865 8.30106 3.98474C8.23225 3.90404 8.15701 3.82873 8.07703 3.75821Z" fill="#009F34"/>
<path id="Vector_10" d="M12.5589 4.96178C12.4714 4.87631 12.3765 4.7979 12.2757 4.72808C12.1642 4.65075 12.0454 4.58427 11.9201 4.52857C11.7505 4.45325 11.5698 4.39995 11.3809 4.36997C11.2889 4.35513 11.1955 4.34619 11.1002 4.34341C11.0791 4.34285 11.0586 4.34021 11.0372 4.34021C10.9594 4.34021 10.8829 4.34445 10.8069 4.35273C10.2218 4.41445 9.70498 4.70861 9.35031 5.14099C9.24485 5.26982 9.15553 5.4121 9.08112 5.56308C9.00434 5.71969 8.94415 5.88628 8.90625 6.06118C8.92603 6.06744 8.94512 6.07571 8.96435 6.08249C8.97218 6.08521 8.97983 6.08799 8.98734 6.09108C9.07416 6.12321 9.15904 6.15958 9.23999 6.20207C9.26245 6.21407 9.28487 6.227 9.30675 6.23983C9.39844 6.29244 9.48554 6.35138 9.56788 6.41665C9.57358 6.4211 9.57974 6.42482 9.58502 6.42948C9.65915 6.48932 9.72838 6.55476 9.79375 6.62409C9.86218 6.69676 9.92613 6.77375 9.98413 6.85532C10.0616 6.9645 10.1287 7.08112 10.1848 7.20415C10.4533 7.11544 10.7392 7.06579 11.0373 7.06579C11.5465 7.06579 12.0223 7.20884 12.4307 7.45311C12.5269 7.51072 12.6197 7.5738 12.7082 7.64254C12.7525 7.6769 12.7948 7.71278 12.8369 7.74957C12.8878 7.67502 12.9332 7.59692 12.9747 7.51646C13.0427 7.38464 13.0968 7.24507 13.1371 7.09969C13.188 6.91506 13.2173 6.72159 13.2173 6.52092C13.2179 5.90982 12.9648 5.35786 12.5589 4.96178Z" fill="#009F34"/>
<path id="Vector_11" d="M4.26017 8.00588C4.20227 8.04656 4.14633 8.08978 4.09288 8.13561C4.0506 8.17212 4.00881 8.20877 3.96944 8.24816C3.89629 8.3209 3.83032 8.40036 3.76781 8.48297C3.49252 8.8479 3.32739 9.30006 3.32739 9.791C3.32739 10.2995 3.50344 10.7664 3.79614 11.1372C3.85978 11.2183 3.92907 11.2942 4.00328 11.3654C4.08353 11.4419 4.16924 11.5126 4.26038 11.5765C4.35874 11.6453 4.46323 11.7055 4.57245 11.7575C4.65437 11.7967 4.73838 11.8319 4.82555 11.8603C4.91126 11.8889 4.99909 11.9123 5.08918 11.93C5.22483 11.9567 5.36468 11.9713 5.50797 11.9713C6.46769 11.9713 7.28297 11.347 7.57345 10.4838C7.61386 10.3641 7.64279 10.2399 7.66194 10.112C7.55784 10.0817 7.45773 10.0427 7.3611 9.99737C7.28544 9.96197 7.21242 9.92226 7.14163 9.87852C7.04854 9.82038 6.95981 9.75671 6.87716 9.68578C6.80094 9.62013 6.72973 9.54923 6.66342 9.47357C6.63191 9.4379 6.60225 9.40139 6.57326 9.36349C6.50427 9.27277 6.44067 9.17815 6.38626 9.07767C6.34696 9.00409 6.31282 8.92732 6.28229 8.84957C6.25499 8.77929 6.23152 8.70798 6.21163 8.63468C6.19686 8.58075 6.18357 8.52672 6.1729 8.47094C6.15311 8.36753 6.14251 8.26096 6.13875 8.15296C6.13792 8.12785 6.13486 8.10306 6.13486 8.07744C6.13486 8.07448 6.13542 8.07156 6.13542 8.06836C6.13569 8.01248 6.13931 7.9573 6.1439 7.90205C6.14689 7.8663 6.15131 7.83119 6.15597 7.7961C6.15941 7.76853 6.16386 7.74106 6.16845 7.71373C6.11306 7.69603 6.05655 7.68202 5.9995 7.66873C5.8731 7.63949 5.7426 7.62207 5.60919 7.61606C5.57539 7.61432 5.54232 7.61084 5.50818 7.61084C5.46812 7.61084 5.42904 7.61473 5.38943 7.61682C5.29517 7.62204 5.20216 7.63181 5.11151 7.64881C5.00556 7.66846 4.90264 7.69603 4.80288 7.73038C4.72659 7.7565 4.65266 7.78689 4.58062 7.82103C4.46793 7.87406 4.36062 7.93553 4.26017 8.00588Z" fill="#009F34"/>
<path id="Vector_12" d="M10.3197 8.55632C10.3182 8.56244 10.3162 8.56859 10.3147 8.57495C10.2931 8.66456 10.2659 8.75152 10.2333 8.83626C10.2005 8.92152 10.1643 9.00525 10.1211 9.08498C10.0803 9.16036 10.0338 9.23185 9.9844 9.3014C9.92644 9.38304 9.86274 9.46023 9.79403 9.53252C9.77535 9.55217 9.75752 9.57226 9.73857 9.59121C9.68951 9.63857 9.63822 9.68388 9.58557 9.72707C9.56134 9.74685 9.53543 9.76497 9.51033 9.78364C9.42187 9.8487 9.32962 9.90777 9.23178 9.95878C9.1203 10.0166 9.00409 10.0662 8.88257 10.104C9.03476 11.1585 9.94215 11.9722 11.0378 11.9722C11.0513 11.9722 11.0644 11.9705 11.0778 11.9701C11.171 11.9684 11.2627 11.9599 11.3528 11.9465C11.4435 11.9333 11.5327 11.9152 11.62 11.8907C11.798 11.8416 11.9665 11.7704 12.1233 11.68C12.2374 11.6144 12.3455 11.5389 12.4453 11.4539C12.5364 11.3766 12.6209 11.2924 12.698 11.2014C13.0219 10.821 13.2184 10.329 13.2184 9.79157C13.2184 9.43596 13.1309 9.1007 12.979 8.8042C12.9364 8.72089 12.89 8.64005 12.8375 8.56327C12.786 8.48803 12.7289 8.41765 12.6687 8.34991C12.6655 8.3463 12.6623 8.34282 12.6588 8.33879C12.601 8.27453 12.5397 8.21351 12.4749 8.15652C12.4336 8.11973 12.3904 8.08503 12.3461 8.05172C12.2672 7.9925 12.1856 7.93732 12.0993 7.88913C12.0737 7.87456 12.0471 7.86155 12.0204 7.84803C11.8048 7.73864 11.5689 7.66409 11.3193 7.63189C11.2268 7.61982 11.1336 7.61176 11.0378 7.61176C11.0341 7.61176 11.0306 7.61224 11.0271 7.61224C10.7882 7.61336 10.559 7.65425 10.3441 7.72664C10.3453 7.73262 10.3463 7.73891 10.3471 7.74489C10.3585 7.81701 10.366 7.88989 10.3704 7.96395C10.3716 7.98847 10.3736 8.01302 10.374 8.03781C10.3746 8.05147 10.3762 8.06483 10.3762 8.07863C10.3762 8.13618 10.3722 8.19275 10.3676 8.24918C10.3589 8.35311 10.3427 8.45611 10.3197 8.55632Z" fill="#009F34"/>
<path id="Vector_13" d="M8.77417 6.5933C8.74378 6.58262 8.71259 6.57254 8.68151 6.56381C8.64945 6.55477 8.61767 6.54611 8.58519 6.53895C8.55609 6.53269 8.52629 6.52852 8.49642 6.52396C8.44572 6.516 8.39485 6.51078 8.34346 6.50786C8.33299 6.50731 8.32267 6.50654 8.31196 6.50613C8.30931 6.50613 8.30667 6.50585 8.30347 6.50557C8.28744 6.50508 8.27141 6.5032 8.25525 6.5032C8.14572 6.5032 8.03928 6.51444 7.93608 6.53575C7.79988 6.56385 7.67078 6.61106 7.5496 6.67195C7.4933 6.70029 7.43812 6.7311 7.386 6.7658C7.14691 6.92467 6.95473 7.14766 6.83126 7.40966C6.81957 7.43459 6.80786 7.45941 6.79715 7.4849C6.78689 7.5099 6.77813 7.53591 6.76919 7.56175C6.76891 7.56258 6.7685 7.56335 6.76822 7.56432C6.75622 7.59895 6.74558 7.63386 6.73609 7.66957C6.72103 7.72552 6.70931 7.78258 6.70027 7.84068C6.69429 7.88004 6.68946 7.91975 6.6864 7.95974C6.68334 7.99861 6.68042 8.03776 6.68042 8.07751C6.68042 8.0903 6.68202 8.10202 6.68223 8.11482C6.68529 8.24817 6.70514 8.3772 6.73957 8.50026C6.74833 8.53173 6.75824 8.56295 6.76891 8.59362C6.8638 8.86661 7.03095 9.10625 7.24903 9.28783C7.35192 9.37368 7.46629 9.44447 7.58889 9.50216C7.61608 9.51509 7.64365 9.52764 7.6721 9.53919C7.69369 9.54799 7.71577 9.55536 7.73795 9.56315C7.8075 9.58738 7.87881 9.60786 7.95253 9.62222C8.03646 9.63853 8.12336 9.64757 8.21147 9.64966C8.21651 9.64966 8.22166 9.65077 8.2267 9.65077C8.2363 9.65108 8.24565 9.65216 8.25525 9.65216C8.27656 9.65216 8.29704 9.64966 8.31836 9.64868C8.39457 9.64604 8.46982 9.63794 8.5434 9.62473C8.55984 9.62153 8.57643 9.61829 8.59287 9.61454C8.67021 9.59771 8.74517 9.57427 8.81791 9.54628C8.83686 9.53915 8.85637 9.53248 8.87494 9.52438C8.92355 9.50362 8.97094 9.48018 9.01705 9.45456C9.0707 9.42503 9.12157 9.39172 9.17091 9.35591C9.23962 9.30688 9.30468 9.25309 9.36445 9.19388C9.43747 9.12141 9.50308 9.04227 9.56063 8.95712C9.56623 8.94916 9.57068 8.94064 9.57586 8.93215C9.5937 8.90486 9.61056 8.87711 9.62673 8.8487C9.67158 8.76956 9.70837 8.68607 9.73928 8.59943C9.74989 8.56848 9.7598 8.53809 9.76884 8.50662C9.76967 8.50426 9.76995 8.50186 9.77068 8.49921C9.78727 8.44111 9.79951 8.38078 9.8091 8.32004C9.81679 8.27098 9.82235 8.22094 9.82513 8.17021C9.82694 8.1393 9.8299 8.10891 9.8299 8.07744C9.8299 8.04441 9.82666 8.01263 9.82486 7.98015C9.82134 7.92608 9.8155 7.87312 9.80688 7.82076C9.79947 7.77576 9.79015 7.73143 9.77899 7.68776C9.77548 7.67472 9.77232 7.66164 9.7688 7.64847C9.75044 7.58383 9.7291 7.52047 9.70288 7.45959C9.69815 7.44808 9.69175 7.43716 9.68671 7.426C9.65437 7.35566 9.61762 7.28764 9.57555 7.22325C9.51421 7.12877 9.44387 7.04049 9.36445 6.96149C9.26313 6.86121 9.14845 6.77498 9.02372 6.70488C8.99685 6.68954 8.96882 6.67609 8.94111 6.66253C8.91489 6.6497 8.88944 6.63627 8.86221 6.62518C8.83394 6.61343 8.80411 6.60366 8.77417 6.5933Z" fill="#009F34"/>
</g>
</g>
</g>
<defs>
<clipPath id="clip0_3_61">
<rect width="16" height="16" fill="white"/>
</clipPath>
</defs>
</svg>
