<svg width="24" height="24" viewBox="0 0 24 24" fill="none" xmlns="http://www.w3.org/2000/svg">
<g id="rainbow-svgrepo-com 1" clip-path="url(#clip0_7_522)">
<g id="Group">
<path id="Vector" d="M12 5.74646C5.3832 5.74646 0 11.0799 0 17.6356C0 17.8544 0.1788 18.0319 0.4 18.0319C0.6212 18.0319 0.8 17.8544 0.8 17.6356C0.8 11.5171 5.8244 6.53907 12 6.53907C18.1756 6.53907 23.2 11.5171 23.2 17.6356C23.2 17.8544 23.3788 18.0319 23.6 18.0319C23.8212 18.0319 24 17.8544 24 17.6356C24 11.0799 18.6168 5.74646 12 5.74646Z" fill="#009F34"/>
<path id="Vector_2" d="M11.9999 8.16589C6.7295 8.16589 2.44189 12.4139 2.44189 17.6356C2.44189 17.8544 2.62069 18.0319 2.84189 18.0319C3.06309 18.0319 3.24189 17.8544 3.24189 17.6356C3.24189 12.851 7.17069 8.9585 11.9999 8.9585C16.8291 8.9585 20.7579 12.851 20.7579 17.6356C20.7579 17.8544 20.9367 18.0319 21.1579 18.0319C21.3791 18.0319 21.5579 17.8544 21.5579 17.6356C21.5579 12.4143 17.2703 8.16589 11.9999 8.16589Z" fill="#009F34"/>
<path id="Vector_3" d="M12.0001 10.5853C8.07652 10.5853 4.88452 13.7478 4.88452 17.6356C4.88452 17.8543 5.06332 18.0319 5.28452 18.0319C5.50572 18.0319 5.68452 17.8543 5.68452 17.6356C5.68452 14.185 8.51772 11.3779 12.0001 11.3779C15.4825 11.3779 18.3157 14.185 18.3157 17.6356C18.3157 17.8543 18.4945 18.0319 18.7157 18.0319C18.9369 18.0319 19.1157 17.8543 19.1157 17.6356C19.1157 13.7482 15.9237 10.5853 12.0001 10.5853Z" fill="#009F34"/>
<path id="Vector_4" d="M11.9999 13.0051C9.42273 13.0051 7.32593 15.0829 7.32593 17.6363C7.32593 17.8551 7.50473 18.0327 7.72593 18.0327C7.94713 18.0327 8.12593 17.8551 8.12593 17.6363C8.12593 15.5197 9.86393 13.7979 11.9999 13.7979C14.1359 13.7979 15.8739 15.5197 15.8739 17.6363C15.8739 17.8551 16.0527 18.0327 16.2739 18.0327C16.4951 18.0327 16.6739 17.8551 16.6739 17.6363C16.6739 15.0829 14.5771 13.0051 11.9999 13.0051Z" fill="#009F34"/>
<path id="Vector_5" d="M11.9999 15.4246C10.7695 15.4246 9.76831 16.4167 9.76831 17.6359C9.76831 17.8547 9.94711 18.0323 10.1683 18.0323C10.3895 18.0323 10.5683 17.8547 10.5683 17.6359C10.5683 16.8535 11.2103 16.2173 11.9999 16.2173C12.7895 16.2173 13.4315 16.8535 13.4315 17.6359C13.4315 17.8547 13.6103 18.0323 13.8315 18.0323C14.0527 18.0323 14.2315 17.8547 14.2315 17.6359C14.2315 16.4167 13.2303 15.4246 11.9999 15.4246Z" fill="#009F34"/>
</g>
</g>
<defs>
<clipPath id="clip0_7_522">
<rect width="24" height="23.7783" fill="white"/>
</clipPath>
</defs>
</svg>
