<svg width="24" height="24" viewBox="0 0 24 24" fill="none" xmlns="http://www.w3.org/2000/svg">
<g id="tea-cup-svgrepo-com 1" clip-path="url(#clip0_4_412)">
<g id="Group">
<path id="Vector" d="M9.22038 3.59467C9.22334 3.61499 9.22743 3.63495 9.23346 3.6541C9.42173 4.47562 9.81124 5.20803 10.3906 5.7874C11.2369 6.63378 12.4094 7.07569 13.7098 7.07564C14.3234 7.07564 14.9658 6.97708 15.6155 6.77625C15.6188 6.77523 15.62 6.77497 15.6211 6.77461C15.6234 6.7739 15.6256 6.77278 15.6279 6.77201C15.6387 6.76844 15.6494 6.76445 15.6599 6.75991C15.664 6.75812 15.668 6.75618 15.672 6.75429C15.6811 6.74995 15.6901 6.74525 15.6989 6.74015C15.7029 6.73785 15.7069 6.7356 15.7107 6.73315C15.7195 6.72764 15.728 6.72166 15.7363 6.71538C15.7396 6.71293 15.743 6.71068 15.7462 6.70813C15.7573 6.69929 15.768 6.6899 15.7783 6.67969C15.7888 6.66922 15.7982 6.65834 15.8071 6.64716C15.8095 6.6442 15.8115 6.64103 15.8138 6.63802C15.8203 6.62934 15.8265 6.6205 15.8322 6.61141C15.8344 6.60784 15.8365 6.60416 15.8386 6.60054C15.844 6.59129 15.8489 6.5819 15.8535 6.57235C15.8552 6.56872 15.8569 6.5652 15.8585 6.56152C15.8634 6.55024 15.8677 6.53885 15.8715 6.52726C15.8721 6.52552 15.8729 6.52389 15.8734 6.52215C15.8737 6.52134 15.8739 6.52047 15.8742 6.5196C15.8746 6.51822 15.875 6.51679 15.8754 6.51536C16.0709 5.88253 16.1715 5.24888 16.1742 4.63177C16.1752 4.42021 16.0044 4.24803 15.7929 4.24711C15.5805 4.24711 15.4092 4.41746 15.4082 4.6284C15.4068 4.96721 15.3707 5.31286 15.3019 5.66137L13.0214 3.38086V1.00915C13.5251 1.18721 13.9744 1.46311 14.3446 1.83327C14.7321 2.22079 15.0191 2.69226 15.1979 3.23461C15.264 3.43545 15.4805 3.54478 15.6815 3.47844C15.8824 3.41227 15.9915 3.19575 15.9253 2.99482C15.7088 2.33768 15.3592 1.76464 14.8862 1.29163C14.307 0.712316 13.5745 0.322801 12.753 0.134528C12.7339 0.128554 12.7141 0.124469 12.6938 0.121558C11.7639 -0.0795822 10.723 -0.0251482 9.66173 0.302835C9.66076 0.303141 9.65979 0.303397 9.65882 0.303703C9.65785 0.304009 9.65683 0.304265 9.65585 0.304571C9.65397 0.305133 9.65218 0.306052 9.65034 0.306665C9.6389 0.310392 9.62762 0.314631 9.61654 0.319482C9.61286 0.321065 9.60929 0.322801 9.60566 0.324537C9.59606 0.329082 9.58661 0.334035 9.57732 0.339448C9.57374 0.34149 9.57022 0.343533 9.5667 0.345728C9.55735 0.35155 9.54831 0.357882 9.53943 0.364622C9.53667 0.366716 9.53376 0.368605 9.53105 0.37075C9.51982 0.379686 9.50889 0.389184 9.49848 0.399601C9.48806 0.410018 9.47856 0.420997 9.46957 0.432231C9.46748 0.434835 9.46564 0.437592 9.46365 0.440248C9.45681 0.449286 9.45037 0.458477 9.44445 0.467975C9.44236 0.471294 9.44042 0.474716 9.43848 0.478137C9.43296 0.487635 9.42785 0.497337 9.42321 0.507192C9.42162 0.510562 9.41999 0.513933 9.41846 0.517354C9.4134 0.528894 9.40896 0.540639 9.40513 0.552537C9.40462 0.554069 9.40391 0.555499 9.40345 0.557031C9.40232 0.560758 9.40191 0.562137 9.40156 0.563516C9.07373 1.62442 9.01934 2.665 9.22038 3.59467ZM11.7138 3.15654H9.91934C9.83805 2.61097 9.8549 2.02348 9.97454 1.41735L11.7138 3.15654ZM10.9322 5.24576C10.562 4.8756 10.2861 4.42629 10.108 3.92249H12.4798L14.7607 6.20341C13.2467 6.50224 11.8479 6.16144 10.9322 5.24576ZM12.2555 0.82052V2.6149L10.5163 0.875669C11.1224 0.756077 11.7099 0.739226 12.2555 0.82052Z" fill="#009F34"/>
<path id="Vector_2" d="M4.46809 18.3101H6.54291C8.16312 19.958 10.321 20.8633 12.6382 20.8633C17.3545 20.8633 21.1914 17.0263 21.1914 12.3101V8.22502C21.1914 8.01346 21.02 7.84204 20.8085 7.84204H4.46803C4.25648 7.84204 4.08506 8.01346 4.08506 8.22502V9.38999C3.03595 9.47843 2.06155 9.92958 1.30861 10.6826C0.464783 11.5265 0 12.6486 0 13.842C0 15.0355 0.464783 16.1575 1.30871 17.0015C2.15265 17.8453 3.27467 18.3101 4.46809 18.3101ZM1.85025 11.2242C2.54936 10.525 3.47903 10.1399 4.46803 10.1399C4.67959 10.1399 4.85101 9.96849 4.85101 9.75693V8.608H20.4255V12.3101C20.4255 16.604 16.9322 20.0974 12.6382 20.0974C10.478 20.0974 8.46986 19.2331 6.98359 17.6638C6.91128 17.5874 6.81069 17.5442 6.70555 17.5442H4.46809C3.47929 17.5442 2.54962 17.1591 1.8503 16.4598C1.15103 15.7606 0.765957 14.8309 0.765957 13.842C0.765957 12.8531 1.15103 11.9235 1.85025 11.2242Z" fill="#009F34"/>
<path id="Vector_3" d="M4.46815 16.7782H5.56138C5.69828 16.7782 5.82471 16.7052 5.89314 16.5866C5.96151 16.468 5.96141 16.3219 5.89288 16.2034C5.21128 15.0253 4.85108 13.679 4.85108 12.3101V11.2889C4.85108 11.0773 4.67966 10.9059 4.4681 10.9059C3.68381 10.9059 2.94645 11.2113 2.39195 11.7658C1.8374 12.3204 1.53198 13.0578 1.53198 13.8421C1.53198 14.6263 1.8374 15.3637 2.392 15.9183C2.94655 16.4728 3.68391 16.7782 4.46815 16.7782ZM2.93358 12.3074C3.25166 11.9894 3.65118 11.7821 4.08512 11.7053V12.3101C4.08512 13.5954 4.3744 14.8626 4.9263 16.0123H4.46815C3.88848 16.0123 3.34352 15.7865 2.93363 15.3766C2.52369 14.9667 2.29794 14.4217 2.29794 13.8421C2.29794 13.2623 2.52369 12.7174 2.93358 12.3074Z" fill="#009F34"/>
<path id="Vector_4" d="M12.6382 19.3315C14.2361 19.3315 15.7426 18.8062 16.9952 17.8123C17.1608 17.6809 17.1886 17.44 17.0571 17.2743C16.9257 17.1086 16.6848 17.0809 16.5191 17.2123C15.4034 18.0976 14.0614 18.5655 12.6382 18.5655C9.18901 18.5655 6.3829 15.7594 6.3829 12.3102L6.38295 10.1551C6.88414 10.1975 7.17776 10.324 7.50789 10.4662C7.9308 10.6484 8.41019 10.8549 9.31892 10.8549C10.2277 10.8549 10.7071 10.6484 11.13 10.4662C11.5364 10.2911 11.8872 10.14 12.638 10.14C13.3889 10.14 13.7398 10.2911 14.1461 10.4662C14.569 10.6484 15.0485 10.8549 15.9573 10.8549C16.8661 10.8549 17.3454 10.6484 17.7684 10.4662C18.0986 10.324 18.3922 10.1975 18.8936 10.1551L18.8935 12.3102C18.8935 13.7334 18.4256 15.0754 17.5403 16.191C17.4089 16.3567 17.4366 16.5977 17.6023 16.7291C17.7679 16.8606 18.0089 16.8328 18.1403 16.6672C19.1342 15.4147 19.6595 13.908 19.6595 12.3102L19.6595 9.757C19.6595 9.65544 19.6192 9.55806 19.5474 9.48616C19.4756 9.41436 19.3782 9.37402 19.2766 9.37402C18.3677 9.37402 17.8883 9.58053 17.4654 9.76272C17.059 9.93777 16.7081 10.0889 15.9573 10.0889C15.2064 10.0889 14.8555 9.93777 14.4491 9.76272C14.0262 9.58053 13.5468 9.37402 12.638 9.37402C11.7293 9.37402 11.2499 9.58053 10.827 9.76272C10.4206 9.93777 10.0697 10.0889 9.31892 10.0889C8.56818 10.0889 8.21727 9.93777 7.811 9.76272C7.38809 9.58053 6.90871 9.37402 5.99997 9.37402C5.78847 9.37402 5.61699 9.54544 5.61699 9.757L5.61694 12.3102C5.61694 16.1817 8.76671 19.3315 12.6382 19.3315Z" fill="#009F34"/>
<path id="Vector_5" d="M23.617 21.4429H1.65959C1.44803 21.4429 1.27661 21.6143 1.27661 21.8258C1.27661 22.0374 1.44803 22.2088 1.65959 22.2088H1.88131L2.10221 22.9818C2.2647 23.5506 2.8553 23.9961 3.44682 23.9961H21.8298C22.4213 23.9961 23.0119 23.5505 23.1745 22.9818L23.3953 22.2088H23.617C23.8286 22.2088 24 22.0374 24 21.8258C24 21.6143 23.8286 21.4429 23.617 21.4429ZM22.438 22.7713C22.3693 23.0114 22.0795 23.2301 21.8298 23.2301H3.44682C3.19712 23.2301 2.90728 23.0114 2.8387 22.7713L2.67801 22.2088H22.5987L22.438 22.7713Z" fill="#009F34"/>
</g>
</g>
<defs>
<clipPath id="clip0_4_412">
<rect width="24" height="24" fill="white"/>
</clipPath>
</defs>
</svg>
